<?xml version="1.0" encoding="UTF-8" standalone="no"?>
<!-- Created with Inkscape (http://www.inkscape.org/) -->

<svg
   xmlns:dc="http://purl.org/dc/elements/1.1/"
   xmlns:cc="http://creativecommons.org/ns#"
   xmlns:rdf="http://www.w3.org/1999/02/22-rdf-syntax-ns#"
   xmlns:svg="http://www.w3.org/2000/svg"
   xmlns="http://www.w3.org/2000/svg"
   xmlns:sodipodi="http://sodipodi.sourceforge.net/DTD/sodipodi-0.dtd"
   xmlns:inkscape="http://www.inkscape.org/namespaces/inkscape"
   width="300"
   height="300"
   viewBox="0 0 300 300"
   id="svg2"
   version="1.1"
   inkscape:version="0.91 r13725"
   sodipodi:docname="facebook-icon.svg"
   inkscape:export-filename="/home/kristofer/.local/share/icons/hicolor/256x256/apps/messenger.png"
   inkscape:export-xdpi="16.457144"
   inkscape:export-ydpi="16.457144">
  <defs
     id="defs4" />
  <sodipodi:namedview
     id="base"
     pagecolor="#ffffff"
     bordercolor="#666666"
     borderopacity="1.0"
     inkscape:pageopacity="0.0"
     inkscape:pageshadow="2"
     inkscape:zoom="2.8"
     inkscape:cx="198.70747"
     inkscape:cy="181.97437"
     inkscape:document-units="px"
     inkscape:current-layer="layer1"
     showgrid="false"
     units="px"
     inkscape:window-width="1920"
     inkscape:window-height="1027"
     inkscape:window-x="0"
     inkscape:window-y="22"
     inkscape:window-maximized="1" />
  <metadata
     id="metadata7">
    <rdf:RDF>
      <cc:Work
         rdf:about="">
        <dc:format>image/svg+xml</dc:format>
        <dc:type
           rdf:resource="http://purl.org/dc/dcmitype/StillImage" />
        <dc:title></dc:title>
      </cc:Work>
    </rdf:RDF>
  </metadata>
  <g
     inkscape:label="Layer 1"
     inkscape:groupmode="layer"
     id="layer1"
     transform="translate(0,-752.3621)">
    <path
       style="color:#000000;font-style:normal;font-variant:normal;font-weight:normal;font-stretch:normal;font-size:medium;line-height:normal;font-family:sans-serif;text-indent:0;text-align:start;text-decoration:none;text-decoration-line:none;text-decoration-style:solid;text-decoration-color:#000000;letter-spacing:normal;word-spacing:normal;text-transform:none;direction:ltr;block-progression:tb;writing-mode:lr-tb;baseline-shift:baseline;text-anchor:start;white-space:normal;clip-rule:nonzero;display:inline;overflow:visible;visibility:visible;opacity:1;isolation:auto;mix-blend-mode:normal;color-interpolation:sRGB;color-interpolation-filters:linearRGB;solid-color:#000000;solid-opacity:1;fill-opacity:1;fill-rule:nonzero;stroke:none;stroke-width:1;stroke-linecap:butt;stroke-linejoin:miter;stroke-miterlimit:4;stroke-dasharray:none;stroke-dashoffset:0;stroke-opacity:1;color-rendering:auto;image-rendering:auto;shape-rendering:auto;text-rendering:auto;enable-background:accumulate"
       d="m 150,769.64648 c -19.51592,0 -28.88404,1.39329 -44.49805,6.62305 -20.22056,6.77268 -37.600487,17.51817 -52.37695,32.38281 -16.97693,17.07825 -27.82725,36.96421 -33.261719,60.95704 -2.135099,9.42631 -2.400733,35.58899 -0.441406,44.57617 3.673268,16.84874 10.792522,33.57474 19.736328,46.35156 2.67935,3.82762 9.688875,11.72316 15.662109,17.66406 L 65.5,988.82227 l 0,22.77343 c 0,10.4606 0.0361,16.2018 0.269531,19.3731 0.116714,1.5856 0.267706,2.5238 0.550781,3.1621 0.141538,0.3191 0.332947,0.5758 0.585938,0.7382 0.252991,0.1625 0.536857,0.209 0.785156,0.209 0.175422,0 0.280922,-0.038 0.429688,-0.084 0.148766,-0.046 0.322,-0.1085 0.52539,-0.1894 0.40678,-0.1618 0.933435,-0.3936 1.574219,-0.6914 1.281569,-0.5957 3.014966,-1.4533 5.080078,-2.5098 4.130225,-2.1129 9.587694,-5.0238 15.382813,-8.2265 l 20.898436,-11.5489 9.32031,1.8516 c 13.69925,2.7233 46.97241,2.731 58.71094,-0.016 52.4899,-12.2825 90.01205,-49.23963 100.96484,-99.47855 1.95933,-8.98718 1.6937,-35.14986 -0.4414,-44.57617 C 274.70225,845.61655 263.85193,825.73059 246.875,808.65234 232.09854,793.7877 214.71861,783.04221 194.49805,776.26953 178.88404,771.03977 169.51592,769.64648 150,769.64648 Z m 0,1 c 19.46878,0 28.62858,1.36357 44.17969,6.57227 20.08227,6.72636 37.31633,17.38113 51.98633,32.13867 16.85365,16.95423 27.59666,36.64317 32.99414,60.47266 2.04854,9.04417 2.30794,35.57908 0.4414,44.14062 -10.87336,49.8746 -48.05494,86.5135 -100.21484,98.7188 -11.32149,2.649 -44.89875,2.6716 -58.28906,0.01 l -9.67969,-1.9238 -21.218751,11.7266 c -5.787002,3.1982 -11.238819,6.1049 -15.355469,8.2109 -2.058325,1.053 -3.783349,1.9058 -5.044922,2.4922 -0.630786,0.2932 -1.145078,0.5202 -1.521484,0.6699 -0.188204,0.075 -0.342105,0.1303 -0.451172,0.1641 -0.109067,0.034 -0.19389,0.039 -0.134766,0.039 -0.136635,0 -0.19411,-0.019 -0.24414,-0.051 -0.05003,-0.032 -0.123665,-0.1 -0.212891,-0.3007 -0.178452,-0.4024 -0.353076,-1.2871 -0.466797,-2.8321 C 66.540136,1027.8045 66.5,1022.0538 66.5,1011.5957 l 0,-23.18945 -10.974609,-10.91406 C 49.589405,971.58833 42.554793,963.64605 39.976562,959.96289 31.125088,947.31797 24.043729,930.69112 20.398438,913.9707 c -1.866535,-8.56154 -1.607137,-35.09645 0.441406,-44.14062 5.397471,-23.82949 16.14049,-43.51843 32.99414,-60.47266 14.669997,-14.75754 31.904051,-25.41231 51.986326,-32.13867 15.55111,-5.2087 24.71091,-6.57227 44.17969,-6.57227 z m 0,0.83594 c -9.55103,0 -19.10131,0.64013 -25.10352,1.91992 -27.280273,5.81673 -49.156472,17.02628 -67.42773,34.56641 -19.155286,18.38879 -30.078966,37.75368 -35.535156,63.00391 -2.120561,9.81355 -2.419125,32.19385 -0.535156,41.20703 5.572031,26.65741 15.558496,45.07206 34.990234,64.51758 L 67.5,987.81641 l 0,22.33589 c 0,6.2039 0.08447,11.7957 0.220703,15.8125 0.06812,2.0085 0.149322,3.6216 0.240235,4.7305 0.04546,0.5545 0.09213,0.9797 0.146484,1.2852 0.02718,0.1527 0.05019,0.2697 0.101562,0.3984 0.02568,0.064 0.04795,0.1358 0.15625,0.2402 0.05415,0.052 0.142116,0.1176 0.269532,0.1426 0.127415,0.025 0.273101,-0.01 0.363281,-0.061 0.151708,-0.087 2.760283,-1.5293 6.720703,-3.7129 3.96042,-2.1837 9.320268,-5.1369 15.123047,-8.3321 l 20.933593,-11.5253 8.71289,2.0175 c 12.86542,2.9812 37.7107,3.7236 50.5957,1.5098 30.28774,-5.2038 53.76928,-17.0304 73.77149,-37.16992 23.54722,-23.70892 35.05283,-50.97304 34.98047,-82.91211 -0.0747,-32.96233 -12.24184,-60.54746 -37.30469,-84.60742 -18.27126,-17.54013 -40.14746,-28.74968 -67.42773,-34.56641 -6.00221,-1.27979 -15.55249,-1.91992 -25.10352,-1.91992 z m 0,1.02539 c 9.52046,0 19.04168,0.62274 24.89648,1.8711 27.13085,5.78485 48.80409,16.89899 66.94141,34.31054 24.90441,23.90787 36.92392,51.17254 36.99805,83.89063 0.0718,31.69811 -11.29917,58.6522 -34.69141,82.20508 -19.86467,20.00104 -43.10463,31.71304 -73.22851,36.88864 -12.63392,2.1707 -37.57884,1.4268 -50.20118,-1.498 l -9.08593,-2.1055 -21.269535,11.7109 c -5.802921,3.1952 -11.162382,6.1483 -15.123047,8.3321 -3.632107,2.0026 -5.598938,3.0877 -6.175781,3.4101 -0.0341,-0.2439 -0.06975,-0.4983 -0.103516,-0.9101 -0.08838,-1.0781 -0.168507,-2.682 -0.236328,-4.6817 C 68.585062,1021.9322 68.5,1016.3471 68.5,1010.1523 l 0,-22.74996 -11.404297,-11.41211 c -19.330162,-19.34386 -29.176681,-37.4996 -34.71875,-64.01367 -1.810071,-8.65964 -1.521842,-31.27356 0.535156,-40.79297 5.42039,-25.08455 16.210386,-44.21639 35.25,-62.49414 18.137322,-17.41155 39.810564,-28.52569 66.941411,-34.31054 5.8548,-1.24836 15.37602,-1.8711 24.89648,-1.8711 z m -13.92578,84.85352 -9.15625,9.36719 c -10.79765,11.04491 -26.36699,27.53795 -39.240236,41.42382 -6.436621,6.94294 -12.200209,13.23452 -16.355468,17.86719 -2.07763,2.31634 -3.751845,4.21714 -4.91211,5.58203 -0.580132,0.68245 -1.031416,1.23009 -1.34375,1.63477 -0.156167,0.20234 -0.276657,0.3671 -0.367187,0.50586 -0.04527,0.0694 -0.08354,0.13171 -0.117188,0.19922 -0.03365,0.0675 -0.08203,0.11564 -0.08203,0.31054 0,0.41555 0.05745,0.79342 0.175781,1.11133 0.05917,0.15896 0.131729,0.30446 0.25,0.43945 0.118271,0.13499 0.317292,0.27539 0.56836,0.27539 0.156335,0 0.156022,-0.023 0.185547,-0.0332 0.02952,-0.0102 0.05175,-0.0189 0.07617,-0.0293 0.04885,-0.0208 0.103301,-0.046 0.169922,-0.0781 0.133243,-0.0642 0.314302,-0.15639 0.544922,-0.27539 0.461241,-0.23799 1.120037,-0.58513 1.957031,-1.0332 1.67399,-0.89614 4.059051,-2.19166 6.982422,-3.78907 5.846742,-3.19482 13.842416,-7.60069 22.576172,-12.44726 l 31.419922,-17.43555 16.31836,16.98438 c 4.56508,4.75125 8.8448,9.02601 12.06836,12.09179 1.61178,1.53289 2.95735,2.76205 3.95117,3.60352 0.49691,0.42073 0.90313,0.74411 1.22461,0.9668 0.16074,0.11134 0.2994,0.19791 0.43555,0.26367 0.13614,0.0658 0.2536,0.18392 0.58008,0.0742 0.23823,-0.0801 0.26059,-0.1434 0.38671,-0.2461 0.12613,-0.1027 0.27966,-0.23919 0.4668,-0.41015 0.37429,-0.34193 0.87996,-0.82495 1.50391,-1.4375 1.2479,-1.22511 2.97061,-2.96575 5.04882,-5.09766 4.15644,-4.26383 9.72932,-10.08966 15.71485,-16.44922 11.96738,-12.71522 27.76834,-29.47213 35.11328,-37.23828 4.83444,-5.11168 8.07254,-8.68503 9.98242,-11.05469 0.95494,-1.18483 1.57747,-2.06047 1.91602,-2.72656 0.16927,-0.33305 0.27976,-0.60922 0.28711,-0.91797 0.007,-0.30875 -0.21968,-0.69668 -0.52149,-0.8125 -0.28688,-0.11008 -0.41586,-0.0419 -0.60156,0 -0.1857,0.0419 -0.39803,0.10741 -0.6543,0.19922 -0.51253,0.18362 -1.19189,0.46889 -2.03711,0.84961 -1.69042,0.76143 -4.03729,1.90695 -6.92773,3.37891 -5.78088,2.94391 -13.7289,7.18899 -22.86133,12.23437 l -30.82031,17.02734 -16.64063,-17.11914 -17.26562,-17.75976 z m -0.002,1.43359 16.54882,17.02344 17.17383,17.66602 31.48828,-17.39649 c 9.12528,-5.04142 17.06728,-9.28109 22.83203,-12.2168 2.88238,-1.46785 5.22101,-2.60995 6.88477,-3.35937 0.83188,-0.37471 1.49751,-0.65289 1.96484,-0.82031 0.15304,-0.0548 0.24511,-0.0788 0.35157,-0.10938 -0.0276,0.085 -0.0215,0.11169 -0.0898,0.24609 -0.27098,0.53317 -0.86905,1.39186 -1.80468,2.55274 -1.87128,2.32177 -5.10198,5.88957 -9.92969,10.99414 -7.34642,7.76771 -23.1473,24.52637 -35.11524,37.24219 -5.98213,6.35595 -11.55072,12.17786 -15.70117,16.43554 -2.07522,2.12885 -3.79672,3.86622 -5.03516,5.08204 -0.61921,0.6079 -1.11844,1.08495 -1.47656,1.41211 -0.17509,0.15995 -0.31376,0.28318 -0.41406,0.36523 -0.0594,-0.0339 -0.1148,-0.0643 -0.21094,-0.13086 -0.27245,-0.18872 -0.66497,-0.49885 -1.14844,-0.9082 -0.96693,-0.81871 -2.30644,-2.03924 -3.91015,-3.56446 -3.20742,-3.05042 -7.47879,-7.31835 -12.03516,-12.06054 l -16.85156,-17.53907 -32.091797,17.81055 c -8.732183,4.8457 -16.726429,9.2501 -22.570312,12.44336 -2.921942,1.59663 -5.307272,2.88958 -6.976563,3.7832 -0.834645,0.44682 -1.490743,0.79381 -1.943359,1.02735 -0.176093,0.0909 -0.292883,0.15007 -0.404297,0.20508 -0.05094,-0.14818 -0.08686,-0.38699 -0.0957,-0.64844 0.0093,-0.0155 0.01179,-0.0202 0.02539,-0.041 0.06477,-0.0993 0.173177,-0.25076 0.320313,-0.4414 0.294272,-0.38128 0.739772,-0.92163 1.314453,-1.59766 1.149362,-1.35207 2.822045,-3.24972 4.896484,-5.5625 4.148878,-4.62556 9.907625,-10.91517 16.341797,-17.85547 12.868344,-13.88059 28.436974,-30.37162 39.222654,-41.4043 l 8.43946,-8.63281 z m -0.004,2.2832 c -0.20342,0 -0.23211,0.052 -0.27539,0.0762 -0.0433,0.0242 -0.0724,0.0436 -0.10352,0.0664 -0.0622,0.0455 -0.12506,0.0981 -0.20117,0.16407 -0.15221,0.13184 -0.35095,0.31562 -0.60156,0.55468 -0.50123,0.47813 -1.20599,1.17411 -2.08594,2.0586 -1.75989,1.76897 -4.22517,4.29527 -7.16406,7.33398 -5.87777,6.07742 -13.6466,14.20401 -21.43555,22.40625 -7.788945,8.20224 -15.597666,16.47825 -21.548826,22.85742 -2.975581,3.18959 -5.486332,5.90539 -7.300782,7.90039 -0.907224,0.9975 -1.640551,1.81485 -2.171874,2.42383 -0.531324,0.60898 -0.828032,0.94555 -0.992188,1.2207 -0.09155,0.15346 -0.190636,0.32049 -0.136719,0.59571 0.02696,0.13761 0.118069,0.28618 0.228516,0.37109 0.110446,0.0849 0.221532,0.11871 0.316406,0.13477 0.379496,0.0642 0.671431,-0.0445 1.103516,-0.19531 0.864169,-0.30157 2.124166,-0.91239 3.664062,-1.78516 10.419751,-5.90562 23.253399,-12.96746 33.615239,-18.55078 5.18092,-2.79166 9.74388,-5.21271 13.07617,-6.93555 1.66614,-0.86142 3.02565,-1.54885 3.99609,-2.01758 0.48522,-0.23436 0.87511,-0.41533 1.15039,-0.5332 0.13415,-0.0574 0.23849,-0.0976 0.31055,-0.12305 0.0723,0.0426 0.18428,0.11782 0.32422,0.22266 0.28489,0.21343 0.68281,0.54251 1.16992,0.96875 0.97422,0.85248 2.31181,2.09603 3.90625,3.63086 3.18889,3.06965 7.41405,7.30934 11.90039,11.97265 l 16.68945,17.34961 2.46485,-2.60156 c 1.16791,-1.233 13.72261,-14.59954 27.91992,-29.72461 14.19688,-15.12462 28.10662,-29.89557 30.89258,-32.80664 l 5.08203,-5.31055 -0.60352,-0.7832 -13,7.17383 c -7.15047,3.94634 -20.21869,11.17311 -29.04101,16.06055 -4.40638,2.44107 -8.57628,4.66087 -11.74219,6.26757 -1.58296,0.80335 -2.91543,1.45419 -3.89453,1.9004 -0.48955,0.2231 -0.89184,0.39517 -1.18555,0.50781 -0.29371,0.11263 -0.54853,0.14844 -0.44336,0.14843 0.14092,10e-6 0.0819,0.0171 0.008,-0.0234 -0.0741,-0.0405 -0.19062,-0.11567 -0.33398,-0.21875 -0.28672,-0.20616 -0.68469,-0.52574 -1.16797,-0.93946 -0.96655,-0.82743 -2.28118,-2.03573 -3.84375,-3.52734 -3.12514,-2.98321 -7.24098,-7.10379 -11.58594,-11.63672 -4.35166,-4.53993 -8.39569,-8.66728 -11.4082,-11.66211 -1.50625,-1.49741 -2.75473,-2.71036 -3.6582,-3.55469 -0.45174,-0.42216 -0.81706,-0.75125 -1.0918,-0.98242 -0.13737,-0.11558 -0.25016,-0.20795 -0.35156,-0.27929 -0.0507,-0.0357 -0.0973,-0.0655 -0.1543,-0.0957 -0.057,-0.0302 -0.10158,-0.0801 -0.29492,-0.0801 z m 0.0215,1.11133 c 0.0466,0.0369 0.0768,0.0571 0.13672,0.10743 0.24999,0.21033 0.60789,0.53349 1.05274,0.94921 0.88969,0.83146 2.13273,2.03999 3.63476,3.53321 3.00407,2.98642 7.04362,7.10946 11.39063,11.64453 4.35372,4.54207 8.47651,8.67188 11.61719,11.66992 1.57033,1.49902 2.89378,2.71415 3.88476,3.5625 0.49549,0.42417 0.90707,0.75489 1.23438,0.99023 0.16365,0.11768 0.30462,0.21249 0.4375,0.28516 0.13287,0.0727 0.23072,0.14648 0.47265,0.14648 0.30719,0 0.47447,-0.0897 0.80078,-0.21484 0.32632,-0.12513 0.74159,-0.30311 1.24219,-0.53125 1.0012,-0.45627 2.34105,-1.11074 3.93164,-1.91797 3.18119,-1.61445 7.36171,-3.83895 11.77734,-6.28515 8.82171,-4.8871 21.88954,-12.11278 29.03907,-16.0586 l 10.13281,-5.59179 -2.81836,2.94336 c -2.80467,2.93062 -16.70085,17.68907 -30.89844,32.81445 -14.19717,15.12493 -26.76902,28.50978 -27.91601,29.7207 l -1.7461,1.8418 -15.96289,-16.59571 c -4.49388,-4.67114 -8.72539,-8.91739 -11.92773,-12 -1.60117,-1.5413 -2.94578,-2.79089 -3.94141,-3.6621 -0.49781,-0.43561 -0.90723,-0.77689 -1.22851,-1.01758 -0.16064,-0.12035 -0.2966,-0.21476 -0.42383,-0.28906 -0.12724,-0.0743 -0.20394,-0.15626 -0.4707,-0.15626 -0.19214,0 -0.2435,0.0384 -0.35157,0.0762 -0.10806,0.0377 -0.23263,0.088 -0.38281,0.15234 -0.30036,0.12861 -0.6986,0.31275 -1.19141,0.55078 -0.98561,0.47606 -2.34896,1.16559 -4.01953,2.0293 -3.34113,1.72742 -7.90768,4.14998 -13.09179,6.94336 -10.36823,5.58676 -23.20605,12.64984 -33.634769,18.56054 -1.41586,0.80247 -2.522538,1.32201 -3.28125,1.60547 0.141439,-0.17177 0.142131,-0.18464 0.345703,-0.41797 0.523241,-0.59971 1.253583,-1.41551 2.158203,-2.41015 1.80924,-1.98927 4.319009,-4.70082 7.292969,-7.88867 5.947919,-6.3757 13.753637,-14.65293 21.541014,-22.85352 7.78738,-8.20059 15.55543,-16.32465 21.42969,-22.39844 2.93713,-3.03689 5.40079,-5.56166 7.1543,-7.32422 0.87675,-0.88127 1.5774,-1.57259 2.0664,-2.03906 0.22172,-0.2115 0.38578,-0.36201 0.51367,-0.47461 z"
       id="path4282"
       inkscape:connector-curvature="0" />
  </g>
</svg>
